# xmcd CD database file
#
# Track frame offsets:
#	150
#	33636
#	65963
#	96545
#	111828
#	153348
#	160985
#	195405
#	226755
#
# Disc length: 3254 seconds
#
# Revision: 0
# Processed by: cddbd v1.4PL0 Copyright (c) Steve Scherf et al.
# Submitted via: CDex 1.50beta9
#
DISCID=770cb409
DTITLE=Bergonzi, Stéphane Guillaume, Olivier Ker Ourio - Charlier Sourisse
DYEAR=1900
DGENRE=Jazz
TTITLE0=Poups
TTITLE1=Purple Turtle
TTITLE2=L'Esprit de l'eau
TTITLE3=Entre ciel et mer
TTITLE4=Dolce vita
TTITLE5=Barala´ doum
TTITLE6=On n'y pense jamais
TTITLE7=Bestiole
TTITLE8=Les Étoiles de Léa
EXTD=
EXTT0=
EXTT1=
EXTT2=
EXTT3=
EXTT4=
EXTT5=
EXTT6=
EXTT7=
EXTT8=
PLAYORDER=
